<svg width="180" height="16" viewBox="0 0 180 16" fill="none" xmlns="http://www.w3.org/2000/svg">
<rect x="8.9917" y="0.284912" width="2" height="16" transform="rotate(24 8.9917 0.284912)" fill="#D9D9D9"/>
<rect x="17.3267" y="0.284912" width="2" height="16" transform="rotate(24 17.3267 0.284912)" fill="#D9D9D9"/>
<rect x="25.6614" y="0.284912" width="2" height="16" transform="rotate(24 25.6614 0.284912)" fill="#D9D9D9"/>
<rect x="33.9963" y="0.284912" width="2" height="16" transform="rotate(24 33.9963 0.284912)" fill="#D9D9D9"/>
<rect x="42.3313" y="0.284912" width="2" height="16" transform="rotate(24 42.3313 0.284912)" fill="#D9D9D9"/>
<rect x="50.666" y="0.284912" width="2" height="16" transform="rotate(24 50.666 0.284912)" fill="#D9D9D9"/>
<rect x="59.001" y="0.284912" width="2" height="16" transform="rotate(24 59.001 0.284912)" fill="#D9D9D9"/>
<rect x="67.3359" y="0.284912" width="2" height="16" transform="rotate(24 67.3359 0.284912)" fill="#D9D9D9"/>
<rect x="75.6707" y="0.284912" width="2" height="16" transform="rotate(24 75.6707 0.284912)" fill="#D9D9D9"/>
<rect x="84.0056" y="0.284912" width="2" height="16" transform="rotate(24 84.0056 0.284912)" fill="#D9D9D9"/>
<rect x="92.3403" y="0.284912" width="2" height="16" transform="rotate(24 92.3403 0.284912)" fill="#D9D9D9"/>
<rect x="100.675" y="0.284912" width="2" height="16" transform="rotate(24 100.675 0.284912)" fill="#D9D9D9"/>
<rect x="109.01" y="0.284912" width="2" height="16" transform="rotate(24 109.01 0.284912)" fill="#D9D9D9"/>
<rect x="117.345" y="0.284912" width="2" height="16" transform="rotate(24 117.345 0.284912)" fill="#D9D9D9"/>
<rect x="125.68" y="0.284912" width="2" height="16" transform="rotate(24 125.68 0.284912)" fill="#D9D9D9"/>
<rect x="134.015" y="0.284912" width="2" height="16" transform="rotate(24 134.015 0.284912)" fill="#D9D9D9"/>
<rect x="142.35" y="0.284912" width="2" height="16" transform="rotate(24 142.35 0.284912)" fill="#D9D9D9"/>
<rect x="150.685" y="0.284912" width="2" height="16" transform="rotate(24 150.685 0.284912)" fill="#D9D9D9"/>
<rect x="159.02" y="0.284912" width="2" height="16" transform="rotate(24 159.02 0.284912)" fill="#D9D9D9"/>
<rect x="167.354" y="0.284912" width="2" height="16" transform="rotate(24 167.354 0.284912)" fill="#D9D9D9"/>
<rect x="175.689" y="0.284912" width="2" height="16" transform="rotate(24 175.689 0.284912)" fill="#D9D9D9"/>
</svg>
